    <svg
    width="1000"
    height="600"
    viewBox="0 0 600 255"
    version="1.1"
    id="svg1"
    sodipodi:docname="eagle.svg"
    inkscape:version="1.4 (e7c3feb1, 2024-10-09)"
    xmlns:inkscape="http://www.inkscape.org/namespaces/inkscape"
    xmlns:sodipodi="http://sodipodi.sourceforge.net/DTD/sodipodi-0.dtd"
    xmlns="http://www.w3.org/2000/svg"
    xmlns:svg="http://www.w3.org/2000/svg">
   <sodipodi:namedview
      id="namedview1"
      pagecolor="#ffffff"
      bordercolor="#000000"
      borderopacity="0.25"
      inkscape:showpageshadow="2"
      inkscape:pageopacity="0.0"
      inkscape:pagecheckerboard="0"
      inkscape:deskcolor="#d1d1d1"
      inkscape:zoom="0.41727925"
      inkscape:cx="410.99575"
      inkscape:cy="694.97824"
      inkscape:window-width="1520"
      inkscape:window-height="945"
      inkscape:window-x="0"
      inkscape:window-y="-52"
      inkscape:window-maximized="0"
      inkscape:current-layer="svg1" />
   <defs
      id="defs1" />
   <g
      id="layer0"
      transform="matrix(2.5911086,0,0,2.5911086,-18.337592,-326.43486)">
     <g
        id="layer1">
       <path
          id="path3"
          style="fill:#345850;fill-opacity:1;stroke:none;stroke-width:0.76108;stroke-opacity:1"
          d="m 172.56828,139.8881 c -0.11147,-0.0691 -0.39754,0.2047 -0.8568,0.75241 -0.55168,0.65873 -2.47841,2.60247 -4.28242,4.31912 -3.7148,3.5349 -3.36159,3.18144 -5.63739,5.63325 -2.08452,2.24573 -5.11279,4.07929 -8.99531,5.44566 -0.57279,0.20162 -1.52446,0.67359 -2.1146,1.04903 -0.59008,0.37543 -1.79808,1.07899 -2.68408,1.56321 -1.35652,0.74137 -2.15619,1.43183 -5.06532,4.36924 -0.93494,0.94404 -1.4771,1.45236 -2.03605,1.97818 0.0567,0.0517 0.11356,0.10321 0.17053,0.15451 0.10721,0.0961 0.21069,0.19571 0.31678,0.29301 0.0953,0.0903 0.18805,0.18351 0.28525,0.27181 0.0976,0.0918 0.19532,0.18326 0.29249,0.27544 0.36917,-0.38181 0.70474,-0.7322 1.23972,-1.26607 4.51045,-4.50115 6.9778,-5.37032 16.07499,-5.66116 6.0282,-0.19281 5.86362,-0.1605 9.06456,-1.7849 1.90917,-0.9689 5.17321,-3.56055 6.00842,-4.77025 1.46323,-2.11928 1.80632,-2.79181 1.20509,-2.36368 -0.32524,0.23163 -1.40248,0.85015 -2.39365,1.37459 -0.99114,0.52441 -2.11756,1.16574 -2.50321,1.42472 -0.38545,0.25902 -0.79532,0.47077 -0.91002,0.47077 -0.11502,0 -0.52357,0.21192 -0.9095,0.47077 -0.38545,0.25884 -1.01192,0.57704 -1.39165,0.70694 -0.3799,0.13008 -1.10439,0.50043 -1.61075,0.82372 -0.50654,0.32328 -1.19272,0.64668 -1.52498,0.7183 -0.33247,0.0716 -1.21861,0.40368 -1.9699,0.73794 -1.27452,0.56706 -1.95699,0.63515 -1.95699,0.19534 0,-0.10229 0.24939,-0.24655 0.55397,-0.32091 0.30459,-0.0743 0.875,-0.35558 1.26763,-0.62477 0.39272,-0.26923 1.27341,-0.70878 1.95698,-0.97668 3.26463,-1.2794 4.77571,-3.64251 7.50497,-11.73831 0.78826,-2.3382 1.08702,-3.40607 0.90124,-3.52123 z m -8.76277,2.20297 c 0,-0.21891 -2.66723,2.02663 -4.32946,3.64474 -0.66452,0.6469 -1.84262,1.68082 -2.61792,2.29805 -0.77524,0.6172 -1.67561,1.40143 -2.00092,1.74253 -0.32524,0.34106 -0.71252,0.62011 -0.86041,0.62011 -0.14784,0 -0.65209,0.34493 -1.12034,0.76637 -0.46803,0.42147 -1.31995,1.06067 -1.89291,1.42058 -0.57297,0.35992 -1.16098,0.79788 -1.30638,0.97307 -0.14552,0.17504 -0.62774,0.4905 -1.07229,0.70073 -0.4446,0.21025 -1.2344,0.67334 -1.75493,1.0294 -1.7975,1.22967 -2.27774,1.55025 -2.85254,1.90376 -1.28378,0.7895 -3.9246,2.80048 -5.06997,3.86022 -0.61268,0.56687 -0.99467,0.91045 -1.43816,1.31465 0.0408,0.0178 0.0819,0.0351 0.12248,0.0532 0.12389,0.0571 0.2476,0.11437 0.37,0.17467 0.12815,0.0658 0.25889,0.12729 0.37982,0.20619 0.11691,0.0741 0.23257,0.15044 0.34623,0.22944 0.13083,0.0955 0.26231,0.18978 0.38344,0.29765 0.141,0.11765 0.27878,0.23925 0.41135,0.36639 0.13682,0.12771 0.27855,0.24995 0.41341,0.37982 0.0602,0.0587 0.12164,0.11607 0.18293,0.17364 2.05725,-2.54904 6.61033,-6.66928 9.81439,-8.5137 0.57719,-0.33226 1.46961,-0.84843 1.98334,-1.14773 0.51375,-0.29928 1.65911,-0.82909 2.54507,-1.17667 0.88604,-0.34759 2.19982,-0.90577 2.91971,-1.24075 0.71991,-0.33499 1.49001,-0.69276 1.71153,-0.7953 1.06074,-0.49104 4.73253,-7.69176 4.73253,-9.28109 z m 12.19234,15.29417 c -0.0983,0.0339 -0.12405,0.0417 -0.23047,0.0786 -0.73596,0.25452 -2.72336,0.85152 -4.41627,1.32705 -2.36096,0.66317 -12.14648,2.14074 -16.9261,3.24063 -0.0544,0.0516 -0.10792,0.1044 -0.16123,0.15762 -0.0952,0.0962 -0.18818,0.19569 -0.2806,0.29559 3.49885,-0.39155 12.52767,-1.74218 15.0151,-2.32751 2.93475,-0.69058 5.33159,-1.4264 6.9913,-2.12804 0.003,-0.0158 0.004,-0.0318 0.007,-0.0475 2e-4,-0.001 0.001,-0.0103 0.002,-0.0124 v -0.36225 z m -0.293,3.03754 c -0.4496,0.0547 -0.91907,0.16025 -1.22112,0.29301 -0.45555,0.20028 -1.17947,0.39594 -1.6092,0.4346 -0.42957,0.0388 -1.45121,0.25166 -2.27015,0.47284 -0.81897,0.22123 -2.31925,0.48991 -3.33364,0.59686 -3.35988,0.35422 -8.85922,1.2705 -9.08627,1.49603 -0.0151,0.0149 -0.007,0.0272 0.0274,0.0357 0.16247,0.0408 1.6556,0.0319 3.31814,-0.0202 1.66254,-0.0521 3.62892,-0.0965 4.36976,-0.0982 0.74081,-0.002 2.14769,-0.0446 3.12642,-0.0951 0.97869,-0.0505 1.85882,-0.71962 2.46718,-0.66815 1.52698,-0.67403 2.50528,-0.94853 4.21178,-2.44739 z m -22.83582,4.84725 c 1.33875,0.53113 6.39586,1.17876 8.85527,1.53738 0.94566,0.13765 3.09236,0.32218 4.76095,0.51728 3.69814,0.43228 8.55544,-1.25558 8.58191,-1.54151 0.004,-0.0409 0.0121,-0.0815 0.0165,-0.12248 -0.49124,-0.0135 -1.23218,0.0118 -1.97973,0.0786 -6.02163,0.53796 -7.4706,0.79922 -9.62422,0.5886 -5.0598,-0.49481 -8.44165,-0.85557 -10.61072,-1.05782 z m 8.63978,4.85966 c -0.21812,0.008 -0.34824,0.0302 -0.3917,0.0667 -0.10433,0.0875 0.28827,0.25652 1.14928,0.51004 0.96664,0.28431 2.58539,0.79633 3.5972,1.13792 0.9413,0.31748 3.92887,-0.0163 4.15181,-0.25469 0.26027,-0.25674 2.32367,-0.50364 2.56962,-0.77368 -1.26671,-0.14151 -2.88426,-0.24191 -3.15381,-0.13849 -0.10971,0.0421 -1.69222,-0.069 -3.51658,-0.2465 -2.30141,-0.22392 -3.75103,-0.32576 -4.40542,-0.30127 z m -11.30577,0.69556 c -0.0177,-0.0201 -1.74969,0.29408 -3.51193,0.62063 0.008,0.006 0.0153,0.0127 0.0233,0.0186 h 5.2e-4 c 0.0371,0.0276 0.0636,0.0567 0.0816,0.0853 1.988,0.94954 6.83565,3.46661 11.05049,6.0508 -0.12997,-0.0347 -0.1787,-0.0356 -0.35088,-0.0853 0.18026,0.055 0.20574,0.0486 0.3669,0.093 1.38224,0.88795 2.74222,1.33172 4.27881,0.81235 -8.00622,-4.25412 -12.07551,-6.44512 -11.30215,-6.25543 1.35935,0.3338 2.14364,0.65971 3.05252,1.26711 0.67283,0.44959 1.94897,1.13763 2.83652,1.5291 0.8876,0.39154 2.55232,1.13152 3.69952,1.64538 1.68614,0.74658 2.67745,1.4291 4.40283,0.68161 0.30172,-0.14115 0.60339,-0.28243 0.90434,-0.42529 -4.72048,-1.46141 -9.89731,-3.33184 -11.8861,-4.51239 -0.77478,-0.45994 -2.26682,-1.06084 -3.72897,-1.5012 0.0584,-0.0139 0.0848,-0.0219 0.0827,-0.0243 z m 8.07238,0.34778 c -0.14061,-0.006 -0.085,0.0525 0.23048,0.19431 0.5734,0.25782 1.75698,0.84414 2.63084,1.30224 0.87382,0.45821 2.87853,1.35806 4.45503,1.99936 1.43459,0.5838 3.29555,0.42559 3.61654,0.0447 -0.85941,-0.315 -1.79063,-0.72747 -3.22948,-1.24982 -2.80024,-1.01651 -7.09408,-2.2642 -7.70341,-2.29082 z m -12.0158,0.27182 c -0.003,4e-4 -0.004,0.001 -0.007,0.002 0.008,0.006 0.0164,0.0117 0.0248,0.0181 -0.005,-0.007 -0.0117,-0.0131 -0.0176,-0.0196 z m 0.0641,0.0708 c -0.64729,0.12075 -1.0267,0.19382 -1.41645,0.27027 -0.0106,0.0812 -0.0424,0.15888 -0.0723,0.23513 -0.0291,0.0697 -0.0512,0.1419 -0.0832,0.21032 -0.0253,0.0594 -0.0586,0.11454 -0.0961,0.16691 -0.0228,0.0319 -0.0469,0.0622 -0.0749,0.0889 0.21685,0.10675 0.40901,0.19303 0.65577,0.32867 0.77124,0.42392 1.82476,0.89011 2.34043,1.03559 0.57613,0.16257 1.13861,0.4989 1.45831,0.87127 1.69106,1.96889 5.29931,5.01353 8.79791,7.62382 0.42214,0.0761 2.66979,0.37902 2.66979,0.37902 0,0 -1.04375,-1.41104 -1.23474,-1.64148 -1.12978,-0.67644 -2.86156,-1.78559 -4.63744,-2.98069 -0.55023,-0.37028 -2.03998,-1.50675 -3.31091,-2.52543 -1.27087,-1.01865 -2.65054,-2.09339 -3.06596,-2.38848 -0.41534,-0.29518 -0.92771,-0.74698 -1.13947,-1.00408 -0.0966,-0.11804 -0.26795,-0.26844 -0.45733,-0.42323 -0.0402,-0.007 -0.085,-0.0259 -0.13178,-0.061 -0.0531,-0.0398 -0.10083,-0.0857 -0.14883,-0.13126 -0.0181,-0.0178 -0.0354,-0.0359 -0.0527,-0.0543 z m -2.18901,0.73484 c -0.006,0.002 -0.0114,0.003 -0.017,0.005 0.01,0.005 0.0195,0.0101 0.0269,0.0134 -3.7e-4,-5e-4 -9.3e-4,-0.001 -0.001,-0.002 -0.004,-0.005 -0.005,-0.0115 -0.009,-0.0165 z m 0.2403,0.0155 c -5.2e-4,3.5e-4 -0.001,9.8e-4 -0.002,0.001 -0.009,0.0117 -0.005,0.007 0.002,-0.001 z m -0.045,1.2578 c -0.0458,0.0681 -0.0916,0.13609 -0.13746,0.20413 -0.0536,0.17022 -0.11745,0.33799 -0.18087,0.50384 -0.0191,0.0521 -0.0404,0.10312 -0.0625,0.154 -0.0611,0.14076 -0.12901,0.27865 -0.18035,0.42323 -0.0351,0.15949 -0.12495,0.29251 -0.22169,0.42013 0.67538,0.59997 1.43522,1.32966 1.71669,1.69137 0.34778,0.44761 0.69673,0.83048 0.7736,0.85214 0.0769,0.0216 0.72111,0.74645 1.43195,1.61127 0.71081,0.86479 1.38376,1.5987 1.49655,1.63039 0.11275,0.0317 0.71948,0.7036 1.34927,1.4919 1.65103,1.26573 3.11736,3.21466 4.99347,1.87792 -1.13867,-1.00268 -2.21507,-1.93405 -3.09439,-2.6572 -0.73648,-0.6057 -1.72525,-1.53869 -2.1978,-2.07275 -0.47253,-0.53402 -1.34278,-1.37421 -1.93373,-1.86707 -1.06575,-0.8889 -2.76405,-2.88185 -3.75274,-4.2633 z m -1.08469,2.7802 c -0.002,0.004 -0.004,0.007 -0.007,0.0109 -0.0485,0.0756 -0.0996,0.14886 -0.15554,0.2191 -0.0604,0.0741 -0.11812,0.1503 -0.18242,0.22118 -0.0591,0.0609 -0.12887,0.10868 -0.19689,0.15865 -0.0339,0.0388 -0.0672,0.0782 -0.0987,0.11885 -0.0416,0.0627 -0.11155,0.13445 -0.15245,0.17984 -0.0424,0.0619 -0.0998,0.1086 -0.15968,0.15244 -0.0374,0.0336 -0.0774,0.0652 -0.11834,0.0951 -0.0354,0.0266 -0.0701,0.0542 -0.1049,0.0816 -0.0175,0.0133 -0.0309,0.0227 -0.0403,0.0294 l -5.1e-4,5.2e-4 c -0.003,0.003 -0.007,0.006 -0.0124,0.0129 -0.0555,0.069 -0.12181,0.13118 -0.18551,0.19378 -0.0597,0.0586 -0.11782,0.11844 -0.18242,0.17157 -0.006,0.004 -0.0124,0.009 -0.0186,0.0139 0.9952,1.24493 2.26873,2.86754 4.24057,5.40225 1.18661,1.52531 4.91613,2.90711 5.22191,2.80603 0.0791,-0.0282 0.15957,-0.0529 0.23874,-0.0811 -0.0436,-0.0394 -0.12971,-0.1173 -0.12971,-0.1173 0,0 -1.52974,-1.55187 -2.07015,-2.24586 -0.54043,-0.694 -1.12583,-1.3716 -1.29967,-1.50533 -1.06734,-0.82121 -3.31416,-3.86016 -4.58525,-5.91851 z m -4.38009,0.52244 c -0.18745,0.19891 -0.37534,0.39813 -0.57671,0.61185 -0.10132,0.11169 -0.20253,0.22325 -0.30386,0.33487 0.80356,1.34874 2.04686,3.77381 3.95428,7.6941 0.93907,1.92986 4.41367,2.67351 4.7811,2.5306 0.19438,-0.075 0.64485,0.17692 0.83956,0.10003 -0.0554,-0.0679 -1.45601,-1.8515 -2.01275,-2.59753 -0.79577,-1.06632 -1.83367,-2.39783 -3.40703,-4.37131 -0.61314,-0.76969 -1.57923,-2.33065 -2.30993,-3.64215 -0.0635,-0.0495 -0.11712,-0.11067 -0.16278,-0.17725 0.001,0.002 0.003,0.006 0.002,0.005 -0.0268,-0.0295 -0.0528,-0.0599 -0.0791,-0.0899 -0.0851,-0.0971 -0.1444,-0.19088 -0.19224,-0.28267 -0.16656,0.0204 -0.29511,-0.0232 -0.53226,-0.11576 z m 17.83195,0.44964 c 0.0215,0.006 0.41519,0.13077 0.7984,0.24081 -0.4151,-0.12395 -0.8272,-0.24891 -0.7984,-0.24081 z m -19.35644,1.20561 -0.1049,0.11575 -0.34003,0.37466 -0.33383,0.36742 c -0.1617,0.18885 -0.33267,0.36281 -0.51625,0.52193 -0.0952,0.081 -0.18569,0.16886 -0.27854,0.25321 -0.027,0.0288 -0.0594,0.0632 -0.0863,0.092 -9.6e-4,-0.003 -0.002,-0.007 -0.005,-0.01 -0.0669,0.0622 -0.13639,0.12068 -0.20206,0.185 -0.19697,0.19595 -0.38683,0.40192 -0.57671,0.6072 l 0.001,-5.2e-4 c 0.004,0.0143 0.006,0.0246 0.0103,0.0388 0.22888,-0.24425 0.53244,-0.56409 0.77256,-0.8201 0.40435,0.99518 0.83527,2.2071 1.27124,3.59771 1.51648,4.83732 2.91877,6.70469 4.89014,6.51382 1.0017,-0.0969 1.45047,-0.15387 1.43351,-0.45424 -0.092,0.0929 -0.1824,0.18761 -0.2806,0.27389 -0.0771,0.0678 0.13757,-0.15285 0.21187,-0.22376 0.0222,-0.0212 0.0459,-0.0405 0.0692,-0.0599 -0.0221,-0.2432 -0.33814,-0.64248 -0.90796,-1.34204 -0.63911,-0.78453 -1.25481,-1.73 -1.36839,-2.10065 -0.11356,-0.37074 -0.64323,-1.47835 -1.17667,-2.46186 -0.53344,-0.9835 -1.19655,-2.47527 -1.47382,-3.31504 -0.27716,-0.83977 -0.64732,-1.67582 -0.82217,-1.85777 -0.0588,-0.0609 -0.12231,-0.17014 -0.18655,-0.29559 z m -2.43241,2.54558 c -0.0631,0.0674 -0.13001,0.13826 -0.19637,0.20877 -0.12579,0.23414 -0.24924,0.47008 -0.37155,0.70642 -0.18012,0.34567 -0.35642,0.69379 -0.5333,1.04179 -0.066,0.12371 -0.12545,0.25218 -0.18139,0.38293 0.30644,1.0163 0.61617,1.89158 0.70022,1.95853 0.0888,0.0707 0.27071,0.67037 0.40514,1.33222 0.22296,1.09864 1.58459,3.9854 1.92288,4.07572 1.38316,0.37303 2.38059,-0.45303 1.74046,-1.43867 -0.281,-0.4327 -0.61534,-0.95489 -0.74414,-1.16014 -0.62232,-0.99381 -2.08541,-4.89232 -2.74195,-7.10757 z m -1.70997,3.56257 c -0.0129,0.0393 -0.0253,0.0791 -0.0382,0.11834 -0.0557,0.19105 -0.13979,0.36794 -0.20619,0.55345 -0.10735,0.29387 -0.27597,0.54709 -0.44752,0.79272 -0.0107,0.0159 -0.0225,0.0304 -0.0336,0.046 -0.0646,0.16212 -0.12871,0.3244 -0.19637,0.48473 -0.15999,0.3687 -0.33091,0.73225 -0.52297,1.07952 -0.13654,0.21483 -0.28532,0.41482 -0.46095,0.58807 l -0.0796,0.0873 c 0.65127,1.63723 1.86465,3.00348 2.86959,3.00447 1.39218,0.001 1.44507,-0.12159 0.73691,-1.72651 -0.3343,-0.75802 -0.79113,-2.07466 -1.01441,-2.92592 -0.15771,-0.6012 -0.37664,-1.34335 -0.60668,-2.10219 z" />
      
       
       <path
          style="fill:#345850;fill-opacity:1;stroke:none;stroke-width:0.76108;stroke-opacity:1"
          d="m 63.919613,138.11147 -10e-4,5.1e-4 v 5.2e-4 h 5.17e-4 z"
          id="path1-7" />
       <path
          id="path30"
          style="fill:#ffffff;stroke-width:0.264583"
          d="m 141.63421,176.68833 c -0.68843,0.50406 -0.7474,-1.75697 -2.13601,-1.76273 -1.3886,-0.006 -3.43124,1.83101 -3.86035,2.69278 -1.07923,2.16742 -3.33328,0.51814 -4.07927,0.43959 -1.49197,-0.15711 -3.62573,-0.66289 -4.45739,-2.10352 -1.66331,-2.88126 -1.68634,-5.26403 1.18798,-7.64329 5.72066,-4.73535 11.79896,-2.27308 12.5981,1.37516 0.42646,1.94686 3.67709,4.85656 0.74694,7.00201 z" />
       <path
          style="display:inline;fill:#345850;fill-opacity:1;stroke:none;stroke-width:0.76108;stroke-opacity:1"
          d="m 135.0331,164.58059 c -0.52935,0.0305 -1.06498,0.10622 -1.57045,0.11472 -1.55342,0.001 -2.72618,0.45325 -4.66121,1.7911 -0.62851,0.43454 -1.68626,1.85283 -2.35076,2.03708 -2.28107,2.57094 -2.98641,2.60155 -1.50798,2.31544 2.58795,-0.50049 3.04455,-2.18526 4.26445,-3.03998 4.07039,-2.85185 8.61436,-2.18508 11.25409,1.65158 1.41537,2.05722 -0.23367,0.74947 -1.26038,0.81752 -0.5374,0.0357 -2.28137,1.09415 -2.18127,1.52549 0.84588,-0.0212 2.18705,0.61145 3.47369,-0.0754 0.68451,-0.36534 1.81044,0.97035 1.91875,2.27583 0.14552,1.75724 -0.78449,3.21868 -1.07229,1.68466 -0.64603,-3.44385 -5.70274,-0.69748 -8.0424,4.3682 -1.20572,2.61063 -1.63632,2.40154 -1.09399,-0.53226 0.28228,-1.52599 0.27687,-1.52553 -1.09554,0.10387 -0.83372,0.98985 -1.24852,1.34253 -1.41542,1.20406 -0.16289,-0.1351 -0.51507,0.0266 -1.13481,0.5209 -1.94439,1.55077 -2.84996,1.65495 -1.73943,0.19998 1.91795,-2.51258 1.11991,-3.82847 -1.10226,-1.81746 -0.57601,0.52133 -0.84151,0.12894 -0.40411,-0.59738 0.21143,-0.35115 0.53563,-1.10382 0.71985,-1.67225 0.18411,-0.56843 0.51276,-1.19429 0.72967,-1.39061 0.84327,-0.76316 -0.67765,-0.69234 -1.80092,0.0837 -0.28784,0.1989 -0.94839,0.56316 -1.46813,0.80977 -1.00942,0.47897 -2.64722,2.11037 -4.29069,4.27467 -0.55392,0.72927 -1.90217,2.35775 -2.99672,3.6189 -1.09459,1.26114 -2.44249,2.97396 -2.99516,3.80546 -0.55283,0.8315 -1.2882,1.79363 -1.63453,2.13888 -0.3464,0.34525 -0.89628,1.00216 -1.22215,1.45986 -1.01973,1.43253 -1.27887,1.013 -0.31419,-0.50849 0.33246,-0.52391 0.6041,-1.08535 0.6041,-1.24696 0,-0.53468 -0.6867,0.28045 -1.52497,1.80971 -0.49872,0.90974 -1.41247,2.07068 -2.49597,3.17087 -0.94009,0.95454 -1.52283,1.57617 -1.29502,1.38234 0.41728,-0.35484 0.88626,-0.46876 0.88626,-0.21549 0,0.0753 -0.65898,0.82333 -1.464,1.66192 -0.8051,0.83861 -2.18723,2.32477 -3.07113,3.30264 -1.984754,2.1958 -3.270596,3.283 -3.550686,3.00291 -0.55004,-0.55015 2.145346,-3.79823 5.036386,-6.06888 0.9017,-0.70817 1.63969,-1.32367 1.63969,-1.36839 0,-0.11927 -1.74346,1.08081 -3.02049,2.07894 -5.51779,4.31282 -7.633717,5.33786 -6.766507,3.28042 0.55004,-1.30556 1.809761,-2.46495 4.842081,-4.46019 1.755396,-1.311 2.653126,-2.04359 0.908986,-1.0852 -4.094762,1.95279 -8.823067,3.22834 -9.117787,2.46031 -0.37376,-0.97418 1.505463,-2.14615 5.501473,-3.4308 8.349154,-2.45453 10.401344,-4.59154 15.031924,-11.32035 -2.03867,1.1932 -4.54751,7.95718 -15.752027,10.28518 -4.80221,0.9978 -8.445594,5.07838 -5.277714,5.91127 0.64287,0.16906 0.910157,0.1323 2.733167,-0.37414 1.15351,-0.32049 1.204905,-0.19246 0.364835,0.90848 -1.82286,2.38805 -1.259384,4.06221 1.088306,3.23391 0.47081,-0.16617 0.889709,-0.30179 0.931209,-0.30179 0.039,0 0.07545,0.48268 0.07545,1.07332 0,1.37174 0.07897,1.43179 1.101741,0.8325 1.12757,-0.6608 1.315166,-0.63127 1.315166,0.20826 0,0.92424 0.630604,0.87936 1.625737,-0.11576 0.58387,-0.58383 0.99167,-0.49485 0.99167,0.21653 0,0.90685 0.65759,0.7247 2.06603,-0.57309 0.60471,-0.55718 0.87762,-0.45429 0.98857,0.37207 0.2823,2.10297 4.04488,-1.14642 6.02082,-5.19917 1.05044,-2.15446 1.31858,-2.27786 1.49706,-0.69091 0.48642,4.32494 0.85763,5.01948 2.34715,4.39043 0.23262,-0.0982 0.37326,-0.0191 0.46198,0.25993 0.61954,1.95203 3.67952,1.51169 4.87102,-0.70073 0.38267,-0.71072 0.64693,-0.82788 1.02165,-0.4532 0.16501,0.1652 0.34745,0.13874 0.68936,-0.10077 1.457,-1.0205 2.98817,0.23861 2.99207,2.46031 0.001,0.89903 0.39269,0.75698 0.90123,-0.32711 0.43399,-0.92578 0.68506,-1.03244 1.16272,-0.49506 0.70295,0.79078 0.85125,2.52629 0.27751,3.25096 -0.30067,0.37928 0.63078,0.10507 1.12913,-0.33228 1.38951,-1.21973 0.006,-4.63291 -1.76734,-4.36665 -0.81375,0.12216 -0.88416,0.0937 -1.17925,-0.47698 -0.69188,-1.33791 -2.10431,-1.92579 -3.15123,-1.31155 -0.62334,0.36569 -0.62742,0.36502 -1.00253,-0.13642 -1.67826,-2.24374 -2.30012,-2.81236 -2.64014,-2.41174 -0.25383,0.29933 -0.37789,0.33235 -0.53021,0.14211 -0.37095,-0.4633 -1.00266,-1.85621 -1.14876,-2.53266 -0.14552,-0.67425 -0.14624,-0.67451 -0.79324,-0.047 -1.67898,1.62726 -1.18918,-3.46153 0.59118,-6.14381 1.10737,-1.66829 1.20496,-1.67293 1.50895,-0.0703 0.16462,0.8678 0.3854,1.27377 1.08779,1.99833 0.95608,0.98611 1.55822,2.04439 1.91358,3.36413 0.69021,2.5632 3.76296,4.91127 5.33508,4.07727 1.07448,-0.57 1.81572,-0.26193 1.97455,0.82011 0.0855,0.58103 0.0555,0.61944 -0.39584,0.50643 -1.32914,-0.33362 -1.63453,0.41436 -0.44287,1.08417 0.53443,0.30046 1.00373,0.79854 1.35961,1.44384 0.55392,1.00431 1.04697,1.29311 1.04697,0.6134 0,-0.56021 -0.56923,-2.06862 -0.93121,-2.46858 -0.28785,-0.31795 -0.28354,-0.40469 0.0501,-0.96687 0.55562,-0.94077 1.3951,-0.5688 0.8816,0.39067 -0.39326,0.73466 -9.9e-4,0.8323 0.80616,0.20051 1.0205,-0.79825 1.69021,-0.26592 1.58026,1.25677 -0.0728,1.0063 0.23644,1.17227 0.81442,0.43718 0.96178,-1.22271 -0.20774,-3.40677 -1.62574,-3.03599 -0.29173,0.0762 -0.4401,-0.006 -0.51263,-0.28319 -0.0564,-0.21494 -0.47678,-0.55672 -0.93431,-0.75964 -0.45746,-0.20288 -0.95584,-0.51872 -1.10691,-0.70177 -0.17582,-0.21305 -0.43976,-0.29169 -0.73329,-0.21807 -0.25216,0.0631 -0.51839,0.0156 -0.59273,-0.10284 -0.0921,-0.14938 -0.25392,-0.155 -0.51108,-0.0176 -0.20695,0.11058 -0.51752,0.14726 -0.69091,0.0806 -0.1874,-0.0722 -0.36506,0.0114 -0.43925,0.20154 -0.31296,0.816 -1.44423,-0.5582 -1.91823,-2.33061 -0.28061,-1.04998 -0.16623,-1.24433 2.37092,-4.01784 0.57057,-0.62382 1.1937,-1.37317 1.38492,-1.66502 0.43235,-0.65948 0.7357,-0.45839 1.08883,0.72037 1.16779,3.89761 3.93044,7.08133 5.62291,6.48023 0.93419,-0.33186 1.01666,-0.3323 1.51515,-0.006 0.75187,0.49264 0.68564,0.93999 -0.13901,0.93999 -0.97294,0 -2.08144,1.55324 -1.76216,2.4691 0.5333,1.53022 0.21587,3.24477 -0.69298,3.74189 -0.35033,0.19164 -0.30259,0.22152 0.36793,0.22686 1.65947,0.0135 2.40333,-1.74971 1.71204,-4.05712 -0.31239,-1.04239 0.0651,-1.48851 1.09658,-1.29501 1.12157,0.2104 1.82858,1.45073 1.34358,2.35696 -0.20137,0.37628 -0.18417,0.39373 0.18966,0.19379 2.46785,-1.32074 -0.94893,-6.35741 -3.69745,-5.45031 -0.93273,0.3078 -0.95268,0.28923 -2.50683,-2.31976 -2.3067,-3.87237 -2.72528,-5.70376 -1.57768,-6.905 1.66601,-1.744 3.86859,-5.69526 4.79092,-8.59483 1.31157,-4.12352 6.03426,-6.00571 6.03426,-2.40502 0,1.06821 0.12535,1.09957 0.95705,0.2403 1.6062,-1.65959 1.70058,-4.65472 0.17777,-5.65237 -0.38439,-0.25174 -0.53124,-0.51972 -0.53124,-0.97048 0,-0.39311 -0.2564,-0.9722 -0.69556,-1.57045 -1.0234,-1.76289 -2.32804,-3.451 -4.19303,-4.40077 -0.48031,-0.17098 -1.00337,-0.18557 -1.53272,-0.15502 z"
          id="path25" />
          <path
          id="path24"
          style="fill:#ff9999;fill-opacity:1;stroke:none;stroke-width:0.76108;stroke-opacity:1"
          d="m 63.919096,138.11347 -5.17e-4,0.004 c -0.50598,0 0.88604,2.31933 1.85105,3.08457 0.37043,0.29359 0.99056,0.81781 1.37821,1.1653 1.64341,1.47334 3.585524,2.82908 4.429704,3.09232 1.80593,0.56305 11.090592,4.9872 13.995012,6.66833 0.96915,0.56094 4.382222,1.89756 4.845182,1.89756 0.18122,0 1.087777,0.76819 2.014347,1.70739 0.55921,0.5668 0.967082,0.94092 1.368392,1.26814 -4.31935,-2.01384 -13.877649,-5.65676 -16.081189,-6.78254 -1.55055,-0.79219 -3.362664,-1.75471 -4.027144,-2.13888 -2.39024,-1.38183 -2.470725,-1.41951 -2.054655,-0.9524 0.98274,1.10335 3.92815,2.84236 8.09563,4.77955 2.47707,1.15143 12.427293,4.92933 15.047143,5.77743 0.43905,0.2605 0.93392,0.52462 1.65933,0.87333 3.02708,1.45518 2.664142,2.16241 -0.747758,1.45624 -0.81109,-0.16771 -1.209646,-0.17072 -1.302246,-0.0754 -2.14933,-0.3394 -5.510166,-0.83043 -10.528556,-1.603 -2.13599,-0.32883 -3.491746,-0.8855 -9.238196,-2.74298 -1.03859,-0.3357 -2.11883,-0.6103 -2.40037,-0.6103 -0.28172,0 -0.881412,-0.16774 -1.333252,-0.37311 -0.45186,-0.20525 -1.014416,-0.37537 -1.249536,-0.37775 -0.23486,-0.001 -0.825435,-0.18059 -1.312065,-0.39584 -0.48643,-0.21531 -1.507949,-0.49069 -2.269629,-0.61237 -0.76169,-0.12178 -1.764881,-0.44403 -2.229321,-0.71623 -0.4647,-0.27222 -1.062981,-0.49901 -1.330151,-0.50385 -0.2672,-0.006 -0.844893,-0.13679 -1.283643,-0.293 -0.95504,-0.34011 -1.043993,-0.28513 -0.721403,0.44648 0.49816,1.12962 3.219661,2.67477 4.711341,2.67477 0.25047,0 0.632036,0.13227 0.846976,0.29508 0.21478,0.16251 0.723334,0.29879 1.130164,0.3023 0.47977,0.004 0.941421,0.17621 1.314131,0.48989 0.42173,0.35484 0.89415,0.5079 1.77767,0.57671 0.66166,0.0511 2.154697,0.33586 3.317627,0.63149 2.69531,0.68528 3.466381,0.82894 7.148401,1.3348 1.66134,0.2282 3.785557,0.5769 4.732527,0.68368 4.5273,0.51049 7.202097,0.803 8.979297,0.9865 0.30124,0.26788 1.24187,0.70967 2.66082,1.17461 0.96158,0.31507 1.90714,0.57257 2.10168,0.57257 0.59246,0 0.395278,0.40567 -0.347782,0.71624 -0.97086,0.40566 -3.907344,0.68575 -7.235734,0.68988 -1.54128,0.001 -2.753483,0.0518 -2.693893,0.11162 0.11889,0.11908 7.303857,0.69354 9.472807,0.75758 3.041453,0.0899 0.908611,1.01768 -2.465999,1.0728 -1.5098,0.0243 -3.081442,0.1752 -3.926892,0.37672 -4.46217,1.06346 -22.715417,1.43264 -21.641057,0.4377 0.13336,-0.12333 6.152365,-0.89836 9.760645,-1.25677 1.66124,-0.16482 3.790641,-0.44477 4.732011,-0.62167 0.94141,-0.17679 2.209799,-0.38778 2.818949,-0.46819 1.78725,-0.23568 -4.084366,-0.23948 -7.685836,-0.004 -5.15036,0.33578 -5.812545,0.38493 -8.423775,0.6258 -1.38441,0.12757 -3.649391,0.25186 -5.033801,0.27544 -1.38443,0.0233 -2.607957,0.0675 -2.718697,0.0982 -0.11117,0.0307 -0.272175,0.0435 -0.358635,0.0295 -0.52329,-0.0863 0.639368,1.28247 1.520838,1.79059 1.35328,0.78012 2.110272,0.98049 4.139282,1.09605 0.90916,0.0517 2.398742,0.19814 3.310392,0.32505 2.02861,0.28231 9.116764,0.0959 12.330514,-0.32401 1.21832,-0.15922 2.985482,-0.38621 3.926892,-0.50437 0.94137,-0.11811 2.320162,-0.39197 3.064412,-0.60874 1.00539,-0.29287 1.833526,-0.38037 3.222026,-0.34003 1.02786,0.0301 1.512776,0.0317 2.592606,-0.0646 0.0446,-0.004 0.08036,0 0.124541,-0.008 -1.20504,0.0502 -8.000068,1.29624 -22.897828,4.1677 -1.69474,0.32668 -4.008218,0.37328 -5.091678,0.43305 -2.25883,0.12486 -2.30729,0.40586 -0.24443,1.40405 2.05287,0.99343 4.622384,0.22459 13.390914,-1.97611 1.80033,-0.45186 2.684525,-0.68482 4.205945,-1.06867 0.16559,6.8e-4 0.189407,0.0114 0.375687,0.008 -0.17736,0.001 -0.225294,-0.0103 -0.358634,-0.0119 6.45,-1.62739 11.020155,-2.8034 11.017415,-2.97501 1.86298,-0.11117 3.278296,0.0714 1.825729,0.45423 -0.47083,0.1241 -1.066564,0.36081 -1.323434,0.52555 -0.25717,0.16482 -0.846004,0.42099 -1.308964,0.56948 -0.46303,0.14842 -2.01948,0.72022 -3.45922,1.27072 -1.43981,0.5505 -3.116184,1.14762 -3.725354,1.32705 -2.73752,0.80641 -5.408623,1.51061 -6.221843,1.64021 -0.48702,0.0776 -1.19571,0.27059 -1.57458,0.42892 -0.37879,0.15845 -2.324591,0.68711 -4.323251,1.17512 -4.47482,1.0926 -4.670479,1.83979 -0.471289,1.79782 3.01411,-0.0301 14.765389,-4.14199 18.708419,-6.54637 0.38547,-0.23512 1.000474,-0.38349 1.593184,-0.38395 0.5305,-3.9e-4 1.647741,-0.14184 2.482539,-0.3142 0.83476,-0.17234 1.61575,-0.28065 1.73529,-0.24081 0.52216,0.17408 -3.557767,2.92887 -5.498887,3.71295 -0.67332,0.27195 -1.687686,0.76778 -2.254126,1.10174 -0.56646,0.334 -1.714869,0.87845 -2.552299,1.21027 -1.41218,0.55955 -3.1911,1.31447 -5.14749,2.18436 -1.14988,0.51132 -3.480962,1.20561 -4.048332,1.20561 -0.75015,0 -0.572417,0.29203 0.473873,0.77825 1.08133,0.50238 2.170145,0.60276 2.811715,0.25941 0.23878,-0.12777 0.614384,-0.23202 0.834574,-0.23202 0.66305,0 5.266599,-2.11049 6.765479,-3.10162 0.77005,-0.5092 1.494824,-0.92603 1.610754,-0.92605 0.11599,0 0.91807,-0.45341 1.78232,-1.00717 0.86427,-0.5538 1.636031,-1.00614 1.715141,-1.00614 0.0791,0 0.493888,-0.23825 0.921908,-0.52917 0.61232,-0.41604 2.97361,-1.48466 3.28042,-1.48466 1.00591,0 -4.956003,4.61925 -6.838343,5.29838 -0.19584,0.0706 -0.900262,0.49804 -1.564762,0.9493 -0.6645,0.45125 -1.772899,1.07451 -2.462899,1.38493 -0.69001,0.31045 -1.662221,0.74692 -2.160591,0.96997 -0.49818,0.22302 -1.178242,0.47436 -1.510502,0.55862 -0.60408,0.15305 -0.60397,0.15312 0.47904,0.6382 2.37726,1.06477 3.212568,0.77465 8.897648,-3.08973 8.080549,-5.49274 8.444449,-5.70909 8.444449,-5.01365 0,0.34788 -3.02657,3.13585 -4.36976,4.02508 -1.925252,1.27454 -3.200967,2.13977 -4.188377,2.84117 -1.74768,1.24154 -3.126029,2.12487 -3.576009,2.29133 -0.37544,0.13876 -0.325558,0.17984 0.362252,0.30127 0.43847,0.0776 1.367366,0.32682 2.063956,0.55346 1.47991,0.48148 2.513948,-0.0354 4.663798,-2.32906 4.65141,-4.96285 6.44423,-6.6371 6.76393,-6.31744 0.16964,0.16945 -0.71361,1.55562 -1.1343,1.78077 -0.20639,0.11059 -0.73369,0.72026 -1.1715,1.35444 -0.4379,0.63419 -1.38125,1.72048 -2.09703,2.41432 -0.71584,0.69382 -1.45284,1.49204 -1.63763,1.77405 -0.1847,0.28198 -0.97329,0.92474 -1.751831,1.42834 -1.57805,1.02083 -1.573983,1.05745 0.149861,1.62677 1.87832,0.62038 3.61559,-0.60632 6.05958,-4.27829 1.92571,-2.89321 3.5569,-4.70992 4.24315,-4.72633 0.43513,-0.0116 0.2751,0.35292 -0.35192,0.79944 -0.33192,0.23642 -0.66217,0.67274 -0.73328,0.96997 -0.19126,0.79883 -3.6526,5.50736 -4.70411,6.39857 -0.16636,0.1407 -0.59657,0.49678 -0.95653,0.79117 -0.81992,0.67066 -0.0155,1.59232 1.40405,1.60558 0.34699,0.004 2.24862,-2.08109 2.68562,-2.94349 0.26332,-0.51954 0.56156,-0.97585 0.66198,-1.01389 0.10036,-0.038 0.61713,-0.74808 1.14876,-1.57871 1.0397,-1.62452 2.15379,-2.81947 2.62879,-2.81947 0.31798,0 0.0817,0.6556 -0.32608,0.90796 -0.24601,0.15208 -2.25094,3.11047 -3.21893,4.74958 -0.3877,0.65639 -1.09544,1.64613 -1.57251,2.19883 -1.01019,1.17028 -0.98378,1.28445 0.37,1.6092 3.16876,0.76017 1.62823,-2.9524 6.71081,-4.19167 1.19508,-1.68572 2.35114,-2.991 3.47253,-4.18182 1.1364,-1.20682 3.79729,-2.99988 5.15989,-3.47731 1.34831,-0.47238 1.34807,-0.47235 0.19792,-1.08262 -2.20756,-1.17148 -5.58787,-3.53936 -6.63215,-4.64571 -0.57883,-0.61316 -1.34944,-1.32281 -1.71204,-1.57665 -0.36262,-0.25383 -1.20257,-0.97816 -1.86707,-1.61024 -3.45897,-3.29018 -7.53026,-5.82595 -9.57099,-6.05183 -0.96594,-0.7677 -6.754114,-4.58196 -7.728214,-5.37228 -3.34928,-2.71743 -6.200273,-6.60292 -6.597013,-8.99118 -0.0334,-0.20635 0.02817,-0.30499 0.194303,-0.29352 0.49482,0.0342 1.906016,1.06111 4.352706,3.15536 1.03247,0.88379 4.200524,3.17977 6.636808,4.80952 1.07239,0.71742 2.38825,1.45533 3.7176,2.08515 0.70109,0.33213 1.69763,0.9117 2.21485,1.28829 0.51711,0.37659 1.8468,1.29556 2.95434,2.04174 2.47901,1.67027 3.56132,2.57325 6.64507,5.54385 2.60419,2.50872 4.71372,4.36357 6.14072,5.43636 -0.10185,-0.52242 -0.26741,-1.03 -0.40978,-1.5441 -0.93224,-0.78388 -2.18745,-1.9619 -4.15427,-3.85816 -5.73968,-5.53373 -9.1395,-8.05145 -14.66681,-10.86238 -1.78389,-0.90717 -4.989211,-3.00586 -6.040971,-3.95532 -0.44291,-0.39992 -0.868855,-0.727 -0.946195,-0.72709 -0.15999,-1.8e-4 -2.080087,-1.58515 -3.282487,-2.70939 -3.37313,-3.15375 -5.294688,-3.74209 -4.839498,-1.48208 0.84519,4.19618 4.237674,8.857 7.729244,10.61951 0.48979,0.24723 7.304877,4.46617 7.949907,4.80332 -0.19126,-0.0116 -0.37046,-0.0116 -0.51884,0.0243 -2.23556,0.51932 -6.92973,-1.73346 -10.18077,-4.88549 -0.96972,-0.94018 -1.520672,-1.34521 -1.617472,-1.18856 -0.20415,0.33056 -7.506484,-3.44065 -10.196794,-5.26634 -0.42119,-0.28602 -0.857363,-0.52039 -0.968933,-0.52039 -0.11155,0 -0.574975,-0.30084 -1.029395,-0.66869 -0.45462,-0.36783 -1.324642,-0.94096 -1.933732,-1.27331 -2.09591,-1.14356 -2.719096,-1.52106 -3.122806,-1.8929 -0.2226,-0.20508 -0.94359,-0.61109 -1.60197,-0.90227 -0.65837,-0.29115 -1.640516,-0.88227 -2.182296,-1.31362 -0.54168,-0.43142 -1.316175,-0.84629 -1.720825,-0.92191 -0.40444,-0.0757 -1.443496,-0.62197 -2.308386,-1.21388 -0.86405,-0.5913 -1.653218,-1.07438 -1.755965,-1.07538 z m -1.175639,8.06159 c -0.028,0.008 0.02785,0.11002 0.135909,0.31626 0.39885,0.7613 2.927817,3.10317 3.351217,3.10317 0.0826,0 0.424163,0.19524 0.759643,0.43408 0.33527,0.23879 1.345798,0.71526 2.245858,1.05885 0.89997,0.34359 2.055158,0.87462 2.566768,1.18029 0.98097,0.58609 4.622363,1.95976 5.183663,1.95543 0.18123,-0.001 1.100366,0.21925 2.041736,0.49041 0.94141,0.27116 2.300618,0.63593 3.020488,0.81081 0.71991,0.17485 2.622772,0.6723 4.228682,1.10484 1.6059,0.43252 3.055896,0.78919 3.222026,0.79323 0.55502,0.0135 -5.091697,-2.24213 -8.500257,-3.39566 -0.96476,-0.32651 -2.369386,-0.90103 -3.121256,-1.27692 -0.75185,-0.37584 -1.702166,-0.79213 -2.112016,-0.92501 -0.41003,-0.13278 -1.075186,-0.46507 -1.477946,-0.73845 -0.40277,-0.27334 -1.189147,-0.59492 -1.747697,-0.71469 -0.9961,-0.21367 -1.998928,-0.69605 -2.953308,-1.42007 -0.26384,-0.20039 -0.703081,-0.36432 -0.975651,-0.36432 -0.2728,0 -1.159676,-0.31499 -1.971456,-0.70021 -0.81183,-0.38525 -1.85181,-0.78511 -2.31097,-0.88832 -0.45912,-0.10306 -1.022947,-0.35429 -1.252637,-0.55811 -0.20471,-0.18161 -0.307706,-0.27203 -0.332796,-0.26561 z m 0.116272,12.27935 c -0.9047,0.0625 -0.610121,1.03133 0.737939,1.91461 0.76565,0.50166 5.730988,1.26112 11.805998,1.80558 1.71667,0.15382 3.982168,0.24101 5.034318,0.19378 1.05217,-0.0475 2.728584,-0.0945 3.725354,-0.1049 2.36775,-0.0253 1.378287,-0.33197 -3.490743,-1.08365 -1.80925,-0.2793 -3.370272,-0.55785 -3.468522,-0.61857 -0.37933,-0.23451 -4.197399,-0.8659 -4.599719,-0.76068 -0.2332,0.061 -0.537321,0.022 -0.675411,-0.0863 -0.39215,-0.30893 -1.34377,-0.49968 -2.76779,-0.55397 -0.71991,-0.0274 -1.625744,-0.11017 -2.013314,-0.18448 -0.38769,-0.0741 -1.15833,-0.17156 -1.71204,-0.21653 -0.55395,-0.0454 -1.504913,-0.16823 -2.114083,-0.27388 -0.17852,-0.0307 -0.332587,-0.04 -0.461987,-0.031 z" />
     </g>
   </g>
 </svg>